<?xml version="1.0" encoding="utf-8"?>
<!-- Generator: Adobe Illustrator 22.1.0, SVG Export Plug-In . SVG Version: 6.00 Build 0)  -->
<svg version="1.1" id="Capa_2" xmlns="http://www.w3.org/2000/svg" xmlns:xlink="http://www.w3.org/1999/xlink" x="0px" y="0px"
	 viewBox="0 0 219.1 227.6" style="enable-background:new 0 0 219.1 227.6;" xml:space="preserve">
<style type="text/css">
	.st0{fill:none;stroke:#000000;stroke-width:9;stroke-linejoin:round;stroke-miterlimit:10;}
	.st1{fill:none;stroke:#000000;stroke-width:9;stroke-miterlimit:10;}
	.st2{fill:none;stroke:#000000;stroke-width:9;stroke-linecap:round;stroke-linejoin:round;stroke-miterlimit:10;}
</style>
<path class="st0" d="M12.7,79.3C27,38.4,65.9,9.1,111.7,9.1c45.8,0,84.7,29.4,99,70.3L12.7,79.3z"/>
<path class="st0" d="M12.7,79.3l198,0L12.7,79.3z"/>
<path class="st1" d="M123.3,125.8"/>
<g>
	<path class="st2" d="M210.9,106.4c-12.4,0-12.4-17-24.8-17c-12.4,0-12.4,17-24.8,17c-12.4,0-12.4-17-24.8-17
		c-12.4,0-12.4,17-24.8,17c-12.4,0-12.4-17-24.8-17c-12.4,0-12.4,17-24.8,17c-12.4,0-12.4-17-24.8-17c-12.4,0-12.4,17-24.8,17"/>
</g>
<g>
	<path class="st0" d="M76.5,176l-49.2,0c19.1,25.9,49.8,42.6,84.4,42.6c34.6,0,65.3-16.8,84.4-42.6l0,0H99.2"/>
</g>
<path class="st2" d="M63.1,153.7H26.7c-7.7,0-14-6.2-14-14v0c0-7.7,6.2-14,14-14l49.9,0l0,0v11.6v47c0,7.1,5.1,12.9,11.3,12.9h0
	c6.3,0,11.3-5.8,11.3-12.9v-27.4v-24.9c0-7.1,5.1-12.9,11.3-12.9h0c6.3,0,11.3,5.8,11.3,12.9v2.8v15.7c0,7.1,5.1,12.9,11.3,12.9h0
	c6.3,0,11.3-5.8,11.3-12.9v-18.5v-2.8c0-7.1,5.1-12.9,11.3-12.9h0c6.3,0,11.3,5.8,11.3,12.9v24.7l0,0H197c7.7,0,14-6.2,14-14v0
	c0-7.7-6.2-14-14-14h-10"/>
<circle cx="55.7" cy="48.7" r="5.9"/>
<circle cx="84.3" cy="34.3" r="5.9"/>
<circle cx="75.6" cy="57.6" r="5.9"/>
</svg>
