<?xml version="1.0" encoding="utf-8"?>
<!-- Generator: Adobe Illustrator 22.1.0, SVG Export Plug-In . SVG Version: 6.00 Build 0)  -->
<svg version="1.1" id="Capa_2" xmlns="http://www.w3.org/2000/svg" xmlns:xlink="http://www.w3.org/1999/xlink" x="0px" y="0px"
	 viewBox="0 0 218.9 233.9" style="enable-background:new 0 0 218.9 233.9;" xml:space="preserve">
<style type="text/css">
	.st0{fill:none;stroke:#FFFFFF;stroke-width:9;stroke-linejoin:round;stroke-miterlimit:10;}
	.st1{fill:none;stroke:#FFFFFF;stroke-width:9;stroke-miterlimit:10;}
	.st2{fill:none;stroke:#FFFFFF;stroke-width:9;stroke-linecap:round;stroke-linejoin:round;stroke-miterlimit:10;}
	.st3{fill:#FFFFFF;}
</style>
<path class="st0" d="M11.7,83.1c14.3-40.9,53.2-70.3,99-70.3c45.8,0,84.7,29.4,99,70.3L11.7,83.1z"/>
<path class="st0" d="M11.7,83.1l198,0L11.7,83.1z"/>
<path class="st1" d="M122.3,129.5"/>
<g>
	<path class="st2" d="M209.9,110.1c-12.4,0-12.4-17-24.8-17c-12.4,0-12.4,17-24.8,17c-12.4,0-12.4-17-24.8-17
		c-12.4,0-12.4,17-24.8,17c-12.4,0-12.4-17-24.8-17c-12.4,0-12.4,17-24.8,17c-12.4,0-12.4-17-24.8-17c-12.4,0-12.4,17-24.8,17"/>
</g>
<g>
	<path class="st0" d="M75.5,179.8l-49.2,0c19.1,25.9,49.8,42.6,84.4,42.6c34.6,0,65.3-16.8,84.4-42.6l0,0H98.2"/>
</g>
<path class="st2" d="M62,157.4H25.6c-7.7,0-14-6.2-14-14v0c0-7.7,6.2-14,14-14l49.9,0l0,0v11.6v47c0,7.1,5.1,12.9,11.3,12.9h0
	c6.3,0,11.3-5.8,11.3-12.9v-27.4v-24.9c0-7.1,5.1-12.9,11.3-12.9h0c6.3,0,11.3,5.8,11.3,12.9v2.8v15.7c0,7.1,5.1,12.9,11.3,12.9h0
	c6.3,0,11.3-5.8,11.3-12.9V136v-2.8c0-7.1,5.1-12.9,11.3-12.9h0c6.3,0,11.3,5.8,11.3,12.9v24.7l0,0h29.8c7.7,0,14-6.2,14-14v0
	c0-7.7-6.2-14-14-14h-10"/>
<circle class="st3" cx="54.7" cy="52.4" r="5.9"/>
<circle class="st3" cx="83.2" cy="38" r="5.9"/>
<circle class="st3" cx="74.6" cy="61.4" r="5.9"/>
</svg>
